# xmcd
#
# Track frame offsets: 
#        150
#        18659
#        32159
#        45659
#        59159
#        72659
#        85952
#        97202
#        108452
#        121952
#        135452
#        148952
#        162602
#        176102
#        189602
#        203102
#        216602
#        230102
#        243602
#        257102
#        270602
#        280349
#        289349
#        298349
#        311849
#
# Disc length: 4333 seconds
#
# Revision: 0
# Processed by: cddbd v1.5.2PL0 Copyright (c) Steve Scherf et al.
# Submitted via: ExactAudioCopy v1.0b1
#
DISCID=b610eb19
DTITLE=Robert G. Allen - Multiple Streams Of Internet Income CD7
DYEAR=2003
DGENRE=Business
TTITLE0=How Ordinary People Make Extraordinary Money Online
TTITLE1=How Ordinary People Make Extraordinary Money Online
TTITLE2=How Ordinary People Make Extraordinary Money Online
TTITLE3=How Ordinary People Make Extraordinary Money Online
TTITLE4=How Ordinary People Make Extraordinary Money Online
TTITLE5=How Ordinary People Make Extraordinary Money Online
TTITLE6=How Ordinary People Make Extraordinary Money Online
TTITLE7=How Ordinary People Make Extraordinary Money Online
TTITLE8=How Ordinary People Make Extraordinary Money Online
TTITLE9=How Ordinary People Make Extraordinary Money Online
TTITLE10=How Ordinary People Make Extraordinary Money Online
TTITLE11=How Ordinary People Make Extraordinary Money Online
TTITLE12=How Ordinary People Make Extraordinary Money Online
TTITLE13=How Ordinary People Make Extraordinary Money Online
TTITLE14=How Ordinary People Make Extraordinary Money Online
TTITLE15=How Ordinary People Make Extraordinary Money Online
TTITLE16=How Ordinary People Make Extraordinary Money Online
TTITLE17=How Ordinary People Make Extraordinary Money Online
TTITLE18=How Ordinary People Make Extraordinary Money Online
TTITLE19=How Ordinary People Make Extraordinary Money Online
TTITLE20=How Ordinary People Make Extraordinary Money Online
TTITLE21=How Ordinary People Make Extraordinary Money Online
TTITLE22=How Ordinary People Make Extraordinary Money Online
TTITLE23=How Ordinary People Make Extraordinary Money Online
TTITLE24=How Ordinary People Make Extraordinary Money Online
EXTD=
EXTT0=
EXTT1=
EXTT2=
EXTT3=
EXTT4=
EXTT5=
EXTT6=
EXTT7=
EXTT8=
EXTT9=
EXTT10=
EXTT11=
EXTT12=
EXTT13=
EXTT14=
EXTT15=
EXTT16=
EXTT17=
EXTT18=
EXTT19=
EXTT20=
EXTT21=
EXTT22=
EXTT23=
EXTT24=
PLAYORDER=
